<svg data-v-d3f97b9e="" xmlns="http://www.w3.org/2000/svg" viewBox="0 0 405 90"><!----><!----><!----><g data-v-d3f97b9e="" id="40a45c31-f986-479e-8f63-6dd0b81f86b5" fill="#4113C1" transform="matrix(4.555809020996094,0,0,4.555809020996094,108.16458892822266,1.1503381729125977)"><path d="M5.28 8.20L5.28 7.83L5.28 7.83Q4.98 7.28 4.62 7.01L4.62 7.01L4.62 7.01Q4.27 6.75 3.83 6.75L3.83 6.75L3.83 6.75Q2.87 6.75 2.41 7.73L2.41 7.73L2.41 7.73Q2.06 8.48 2.06 9.67L2.06 9.67L2.06 9.67Q2.06 10.14 2.16 10.60L2.16 10.60L2.16 10.60Q2.26 11.05 2.43 11.45L2.43 11.45L2.43 11.45Q2.89 12.45 3.66 12.45L3.66 12.45L3.66 12.45Q4.94 12.45 5.52 10.99L5.52 10.99L6.06 11.34L6.06 11.34Q5.97 11.76 5.69 12.12L5.69 12.12L5.69 12.12Q5.42 12.48 5.04 12.71L5.04 12.71L5.04 12.71Q4.69 12.93 4.29 13.05L4.29 13.05L4.29 13.05Q3.89 13.17 3.49 13.17L3.49 13.17L3.49 13.17Q2.68 13.17 2.08 12.90L2.08 12.90L2.08 12.90Q1.48 12.63 1.11 12.15L1.11 12.15L1.11 12.15Q0.80 11.71 0.64 11.07L0.64 11.07L0.64 11.07Q0.48 10.42 0.48 9.59L0.48 9.59L0.48 9.59Q0.48 6.10 3.49 6.10L3.49 6.10L3.49 6.10Q3.75 6.10 4.32 6.26L4.32 6.26L4.32 6.26Q4.83 6.40 5.09 6.40L5.09 6.40L5.09 6.40Q5.26 6.40 5.35 6.27L5.35 6.27L5.95 6.27L5.95 8.20L5.28 8.20ZM8.62 9.67L8.62 9.67L8.62 9.67Q8.62 10.78 8.93 11.51L8.93 11.51L8.93 11.51Q9.34 12.50 10.22 12.50L10.22 12.50L10.22 12.50Q10.65 12.50 10.98 12.24L10.98 12.24L10.98 12.24Q11.30 11.99 11.50 11.52L11.50 11.52L11.50 11.52Q11.66 11.15 11.74 10.68L11.74 10.68L11.74 10.68Q11.82 10.22 11.82 9.69L11.82 9.69L11.82 9.69Q11.82 8.58 11.50 7.81L11.50 7.81L11.50 7.81Q11.08 6.77 10.23 6.77L10.23 6.77L10.23 6.77Q9.78 6.77 9.46 7.04L9.46 7.04L9.46 7.04Q9.13 7.31 8.93 7.78L8.93 7.78L8.93 7.78Q8.79 8.15 8.71 8.63L8.71 8.63L8.71 8.63Q8.62 9.12 8.62 9.67ZM13.41 9.64L13.41 9.64L13.41 9.64Q13.41 11.51 12.60 12.34L12.60 12.34L12.60 12.34Q11.81 13.15 9.95 13.15L9.95 13.15L9.95 13.15Q7.03 13.15 7.03 9.64L7.03 9.64L7.03 9.64Q7.03 6.11 10.38 6.11L10.38 6.11L10.38 6.11Q13.41 6.11 13.41 9.64ZM21.79 13.01L18.83 13.01L18.83 12.35L19.51 12.35L19.51 9.06L19.51 9.06Q19.51 6.78 18.16 6.78L18.16 6.78L18.16 6.78Q17.43 6.78 16.78 7.55L16.78 7.55L16.78 12.35L17.47 12.35L17.47 13.01L14.50 13.01L14.50 12.35L15.19 12.35L15.19 6.93L14.50 6.93L14.50 6.27L16.78 6.27L16.78 6.64L16.78 6.64Q17.13 6.38 17.53 6.24L17.53 6.24L17.53 6.24Q17.93 6.10 18.38 6.10L18.38 6.10L18.38 6.10Q19.71 6.10 20.43 6.92L20.43 6.92L20.43 6.92Q21.10 7.70 21.10 9.02L21.10 9.02L21.10 12.35L21.79 12.35L21.79 13.01ZM25.20 12.52L25.20 12.52L25.20 12.52Q25.71 12.52 26.28 11.98L26.28 11.98L26.28 11.98Q26.54 11.74 26.74 11.48L26.74 11.48L26.74 11.48Q26.93 11.22 27.02 10.94L27.02 10.94L27.02 9.41L27.02 9.41Q26.84 9.49 26.57 9.58L26.57 9.58L26.57 9.58Q26.31 9.67 25.96 9.76L25.96 9.76L25.97 9.76L25.97 9.76Q25.59 9.88 25.32 9.99L25.32 9.99L25.32 9.99Q25.06 10.10 24.90 10.23L24.90 10.23L24.90 10.22L24.90 10.22Q24.47 10.58 24.47 11.31L24.47 11.31L24.47 11.31Q24.47 11.80 24.63 12.13L24.63 12.13L24.63 12.13Q24.82 12.52 25.20 12.52ZM23.45 8.16L23.45 6.48L23.45 6.48Q24.27 6.29 24.81 6.19L24.81 6.19L24.81 6.19Q25.35 6.09 25.62 6.09L25.62 6.09L25.62 6.09Q27.17 6.09 27.83 6.57L27.83 6.57L27.83 6.57Q28.60 7.16 28.60 8.68L28.60 8.68L28.60 11.56L28.60 11.56Q28.60 12.35 28.62 12.35L28.62 12.35L29.42 12.35L29.42 13.01L27.31 13.01L27.31 13.01Q27.09 12.67 27.04 12.15L27.04 12.15L27.04 12.15Q26.88 12.34 26.67 12.51L26.67 12.51L26.67 12.51Q26.47 12.68 26.24 12.81L26.24 12.81L26.24 12.81Q25.59 13.17 24.86 13.17L24.86 13.17L24.86 13.17Q23.98 13.17 23.44 12.73L23.44 12.73L23.44 12.73Q22.87 12.24 22.87 11.36L22.87 11.36L22.87 11.36Q22.87 10.23 23.75 9.76L23.75 9.76L23.75 9.76Q24.17 9.54 25.50 9.27L25.50 9.27L25.50 9.27Q26.58 9.06 26.97 8.69L26.97 8.69L26.97 8.69Q26.99 8.62 27.00 8.53L27.00 8.53L27.00 8.53Q27.02 8.45 27.02 8.35L27.02 8.35L27.02 8.35Q27.02 6.75 25.34 6.75L25.34 6.75L25.34 6.75Q24.25 6.75 24.10 8.16L24.10 8.16L23.45 8.16ZM37.69 13.01L34.72 13.01L34.72 12.35L35.40 12.35L35.40 9.06L35.40 9.06Q35.40 6.78 34.05 6.78L34.05 6.78L34.05 6.78Q33.33 6.78 32.68 7.55L32.68 7.55L32.68 12.35L33.37 12.35L33.37 13.01L30.39 13.01L30.39 12.35L31.08 12.35L31.08 6.93L30.39 6.93L30.39 6.27L32.68 6.27L32.68 6.64L32.68 6.64Q33.02 6.38 33.42 6.24L33.42 6.24L33.42 6.24Q33.82 6.10 34.28 6.10L34.28 6.10L34.28 6.10Q35.60 6.10 36.32 6.92L36.32 6.92L36.32 6.92Q37.00 7.70 37.00 9.02L37.00 9.02L37.00 12.35L37.69 12.35L37.69 13.01ZM38.56 13.01L38.56 12.35L39.25 12.35L39.25 3.70L38.56 3.70L38.56 3.04L40.84 3.04L40.84 12.35L41.54 12.35L41.54 13.01L38.56 13.01ZM42.55 6.53L44.31 6.53L44.31 12.61L44.98 12.61L44.98 12.74L42.55 12.74L42.55 12.61L43.25 12.61L43.25 6.67L42.55 6.67L42.55 6.53ZM42.88 4.03L42.88 4.03L42.88 4.03Q42.88 3.84 42.95 3.68L42.95 3.68L42.95 3.68Q43.03 3.51 43.15 3.39L43.15 3.39L43.15 3.39Q43.26 3.27 43.43 3.20L43.43 3.20L43.43 3.20Q43.59 3.12 43.78 3.12L43.78 3.12L43.78 3.12Q43.96 3.12 44.13 3.20L44.13 3.20L44.13 3.20Q44.29 3.27 44.41 3.39L44.41 3.39L44.41 3.39Q44.53 3.51 44.60 3.68L44.60 3.68L44.60 3.68Q44.67 3.84 44.67 4.03L44.67 4.03L44.67 4.03Q44.67 4.21 44.60 4.38L44.60 4.38L44.60 4.38Q44.53 4.54 44.41 4.66L44.41 4.66L44.41 4.66Q44.29 4.78 44.13 4.85L44.13 4.85L44.13 4.85Q43.96 4.92 43.78 4.92L43.78 4.92L43.78 4.92Q43.59 4.92 43.43 4.85L43.43 4.85L43.43 4.85Q43.26 4.78 43.15 4.66L43.15 4.66L43.15 4.66Q43.03 4.54 42.95 4.38L42.95 4.38L42.95 4.38Q42.88 4.21 42.88 4.03ZM50.83 14.51L50.83 14.51L50.83 14.51Q50.83 14.20 50.66 13.94L50.66 13.94L50.66 13.94Q50.48 13.69 50.17 13.49L50.17 13.49L50.17 13.49Q49.88 13.32 49.55 13.23L49.55 13.23L49.55 13.23Q49.22 13.15 48.86 13.15L48.86 13.15L48.86 13.15Q48.70 13.15 48.24 13.39L48.24 13.39L48.24 13.39Q47.22 13.92 47.22 14.62L47.22 14.62L47.22 14.62Q47.22 15.54 48.80 15.54L48.80 15.54L48.80 15.54Q49.77 15.54 50.17 15.41L50.17 15.41L50.17 15.41Q50.83 15.20 50.83 14.51ZM48.02 8.86L48.02 8.86L48.02 8.86Q48.02 9.57 48.34 10.17L48.34 10.17L48.34 10.17Q48.69 10.84 49.31 10.84L49.31 10.84L49.31 10.84Q49.95 10.84 50.30 10.17L50.30 10.17L50.30 10.17Q50.61 9.57 50.61 8.83L50.61 8.83L50.61 8.83Q50.61 8.10 50.28 7.49L50.28 7.49L50.28 7.49Q49.92 6.78 49.30 6.78L49.30 6.78L49.30 6.78Q48.67 6.78 48.32 7.50L48.32 7.50L48.32 7.50Q48.02 8.11 48.02 8.86ZM52.39 6.27L52.39 6.93L51.49 6.93L51.49 6.93Q52.21 7.67 52.21 8.81L52.21 8.81L52.21 8.81Q52.21 9.20 52.11 9.56L52.11 9.56L52.11 9.56Q52.01 9.93 51.80 10.25L51.80 10.25L51.80 10.25L51.80 10.25Q51.61 10.58 51.33 10.82L51.33 10.82L51.33 10.82Q51.06 11.07 50.73 11.23L50.73 11.23L50.73 11.23Q50.33 11.72 49.47 12.03L49.47 12.03L49.47 12.03Q48.69 12.31 48.60 12.36L48.60 12.36L48.60 12.37L48.60 12.37Q48.63 12.42 49.02 12.52L49.02 12.52L49.01 12.52L49.59 12.64L49.59 12.64Q49.78 12.67 49.96 12.71L49.96 12.71L49.96 12.71Q50.14 12.76 50.33 12.79L50.33 12.79L50.33 12.79Q51.21 13.00 51.70 13.33L51.70 13.33L51.70 13.33Q52.37 13.77 52.37 14.53L52.37 14.53L52.37 14.53Q52.37 16.21 49.11 16.21L49.11 16.21L49.11 16.21Q45.85 16.21 45.85 14.75L45.85 14.75L45.85 14.75Q45.85 13.61 47.76 12.90L47.76 12.90L47.76 12.90Q47.70 12.89 47.68 12.89L47.68 12.89L47.68 12.89Q47.66 12.89 47.63 12.87L47.63 12.87L47.63 12.87Q47.15 12.71 47.15 12.35L47.15 12.35L47.15 12.35Q47.15 11.96 48.38 11.59L48.38 11.59L48.78 11.49L48.78 11.49Q48.37 11.42 48.01 11.26L48.01 11.26L48.01 11.26Q47.65 11.09 47.35 10.86L47.35 10.86L47.35 10.86Q46.92 10.49 46.67 9.98L46.67 9.98L46.67 9.98Q46.43 9.47 46.43 8.85L46.43 8.85L46.43 8.85Q46.43 7.59 47.26 6.84L47.26 6.84L47.26 6.84L47.26 6.84Q48.04 6.12 49.30 6.12L49.30 6.12L49.30 6.12Q49.54 6.12 49.73 6.14L49.73 6.14L49.73 6.14Q49.92 6.15 50.07 6.19L50.07 6.19L50.07 6.19Q50.15 6.21 50.22 6.23L50.22 6.23L50.22 6.23Q50.29 6.25 50.35 6.27L50.35 6.27L52.39 6.27ZM53.43 13.01L53.43 12.35L54.12 12.35L54.12 12.35Q54.12 10.15 54.13 8.02L54.13 8.02L54.13 8.02Q54.13 5.89 54.13 3.70L54.13 3.70L53.44 3.70L53.44 3.04L55.73 3.04L55.72 6.64L55.72 6.64Q56.09 6.36 56.48 6.23L56.48 6.23L56.48 6.23Q56.86 6.10 57.31 6.10L57.31 6.10L57.31 6.10Q58.64 6.10 59.36 6.92L59.36 6.92L59.36 6.92Q60.03 7.70 60.03 9.02L60.03 9.02L60.03 12.35L60.72 12.35L60.72 13.01L57.76 13.01L57.76 12.35L58.44 12.35L58.44 9.06L58.44 9.06Q58.44 6.78 57.09 6.78L57.09 6.78L57.09 6.78Q56.74 6.78 56.39 6.98L56.39 6.98L56.39 6.98Q56.05 7.17 55.72 7.54L55.72 7.54L55.72 12.35L56.40 12.35L56.40 13.01L53.43 13.01ZM65.06 6.27L65.06 6.93L63.90 6.93L63.90 11.39L63.90 11.39Q63.90 11.99 64.11 12.15L64.11 12.15L64.11 12.15Q64.29 12.29 65.06 12.35L65.06 12.35L65.06 13.02L65.06 13.02Q64.40 13.00 63.96 12.95L63.96 12.95L63.96 12.95Q63.51 12.91 63.29 12.84L63.29 12.84L63.29 12.84Q62.31 12.53 62.31 11.55L62.31 11.55L62.31 6.93L61.27 6.93L61.27 6.27L61.27 6.27Q62.10 6.27 62.69 5.61L62.69 5.61L62.69 5.61Q62.94 5.33 63.13 4.97L63.13 4.97L63.13 4.97Q63.32 4.61 63.46 4.16L63.46 4.16L63.90 4.16L63.90 6.27L65.06 6.27Z"></path></g><!----><g data-v-d3f97b9e="" id="aeb3b6cf-1908-4404-af2e-735323f7b087" transform="matrix(1.003904104232788,0,0,1.003904104232788,-4.195205211639404,-4.019323825836182)" stroke="none" fill="#1213CF"><path d="M50 25c-13.8 0-25 11.2-25 25s11.2 25 25 25 25-11.2 25-25-11.2-25-25-25zm0 40c-8.3 0-15-6.7-15-15s6.7-15 15-15 15 6.7 15 15-6.7 15-15 15zM35.4 18.2l-4.2-9.1c-3.9 1.8-7.5 4.1-10.7 7l6.6 7.5c2.4-2.2 5.2-4 8.3-5.4zM87.9 74.3l-8.4-5.4c-1.8 2.8-4 5.3-6.5 7.5l6.6 7.6c3.1-2.8 5.9-6.1 8.3-9.7zM79.4 15.9c-3.3-2.8-6.9-5.1-10.8-6.9l-4.1 9.1c3 1.4 5.9 3.2 8.4 5.4l6.5-7.6zM64.6 81.8c-3 1.4-6.2 2.3-9.5 2.8l1.4 9.9c4.3-.6 8.4-1.8 12.3-3.6l-4.2-9.1zM54.9 15.3l1.4-9.9c-4.2-.6-8.6-.6-12.8 0l1.4 9.9c3.3-.4 6.7-.4 10 0zM27.1 76.5c-2.5-2.2-4.7-4.7-6.5-7.5l-8.4 5.4c2.3 3.6 5.2 6.8 8.4 9.7l6.5-7.6zM35.5 81.9L31.4 91c3.9 1.8 8 3 12.3 3.6l1.4-9.9c-3.4-.5-6.6-1.5-9.6-2.8zM6.8 37.4l9.6 2.8c.9-3.2 2.3-6.2 4.1-9.1l-8.4-5.4C9.8 29.4 8 33.3 6.8 37.4zM85 49.8v.2c0 3.4-.5 6.7-1.4 9.9l9.6 2.8C94.4 58.6 95 54.3 95 50v-.1H85zM6.8 62.8l9.6-2.8c-.9-3.2-1.4-6.5-1.4-9.9H5c0 4.3.6 8.6 1.8 12.7zM87.8 25.5L79.4 31c1.8 2.8 3.2 5.8 4.2 9l9.6-2.8c-1.3-4.2-3.1-8.1-5.4-11.7z"></path></g><!----></svg>